<?xml version="1.0" encoding="UTF-8"?>
<svg xmlns="http://www.w3.org/2000/svg" xmlns:xlink="http://www.w3.org/1999/xlink" width="15px" height="15px" viewBox="0 0 15 15" version="1.1">
<g id="surface1">
<path style=" stroke:none;fill-rule:nonzero;fill:rgb(36.862745%,9.019608%,92.156863%);fill-opacity:1;" d="M 14.726562 13.402344 L 11.824219 10.5 C 13.996094 7.597656 13.402344 3.480469 10.5 1.308594 C 7.597656 -0.863281 3.480469 -0.269531 1.308594 2.632812 C -0.863281 5.535156 -0.269531 9.648438 2.632812 11.820312 C 4.964844 13.566406 8.167969 13.566406 10.5 11.820312 L 13.402344 14.726562 C 13.769531 15.089844 14.359375 15.089844 14.726562 14.726562 C 15.089844 14.363281 15.089844 13.769531 14.726562 13.40625 Z M 6.589844 11.261719 C 4.011719 11.261719 1.917969 9.167969 1.917969 6.589844 C 1.917969 4.007812 4.011719 1.917969 6.589844 1.917969 C 9.171875 1.917969 11.261719 4.007812 11.261719 6.589844 C 11.257812 9.167969 9.167969 11.257812 6.589844 11.261719 Z M 6.589844 11.261719 "/>
</g>
</svg>
